<?xml version="1.0" standalone="no"?>
<!DOCTYPE svg PUBLIC "-//W3C//DTD SVG 20010904//EN"
 "http://www.w3.org/TR/2001/REC-SVG-20010904/DTD/svg10.dtd">
<svg version="1.0" xmlns="http://www.w3.org/2000/svg"
 width="512.000000pt" height="512.000000pt" viewBox="0 0 512.000000 512.000000"
 preserveAspectRatio="xMidYMid meet">
<metadata>
Created by potrace 1.14, written by Peter Selinger 2001-2017
</metadata>
<g transform="translate(0.000000,512.000000) scale(0.100000,-0.100000)"
fill="#000000" stroke="none">
<path d="M2255 3980 c-99 -15 -203 -30 -232 -34 -28 -3 -111 -15 -185 -25 -73
-11 -155 -23 -183 -27 -27 -3 -57 -8 -66 -9 -9 -2 -38 -6 -65 -10 -27 -3 -58
-7 -69 -9 -11 -2 -48 -7 -83 -11 -34 -4 -65 -11 -67 -16 -3 -4 -12 -6 -20 -3
-8 3 -63 -2 -122 -11 -147 -22 -173 -26 -293 -41 -19 -2 -46 -6 -60 -9 -14 -3
-45 -7 -70 -10 -25 -3 -56 -8 -70 -10 -14 -2 -77 -11 -140 -20 -63 -9 -136
-21 -163 -27 l-47 -12 7 -165 c5 -91 8 -438 7 -771 l-1 -605 221 -139 c122
-76 289 -180 371 -232 83 -51 170 -107 195 -122 67 -43 884 -555 1125 -706
116 -72 212 -134 215 -138 7 -9 110 21 110 33 0 4 13 6 30 3 29 -6 66 7 260
93 82 37 86 38 490 213 206 89 393 170 415 180 22 10 90 39 150 65 61 26 128
56 150 65 255 113 506 220 514 220 13 0 13 -1 55 285 20 132 54 359 76 505 63
415 111 727 124 818 l13 82 -41 11 c-23 5 -72 19 -111 29 -38 11 -95 26 -125
34 -30 8 -275 74 -545 146 -269 73 -521 140 -560 150 -59 15 -224 60 -545 147
-30 8 -62 16 -70 18 -8 2 -91 24 -185 49 -93 25 -183 45 -200 45 -16 -1 -111
-14 -210 -29z"/>
</g>
</svg>
